<svg id="Layer_1" data-name="Layer 1" xmlns="http://www.w3.org/2000/svg" viewBox="0 0 200 31.19"><defs><style>.cls-1{fill:#fff;}</style></defs><title>Logo - White</title><path class="cls-1" d="M15,30.92V24.35c0-1.3-.24-2.53-1.59-2.53s-2,1.23-2,2.9v6.2H7.51V24.35c0-1.5-.35-2.53-1.62-2.53s-2,1.23-2,2.9v6.2H0V18.83H3.93l0,1.74.05,0a4,4,0,0,1,3.34-1.93,3.4,3.4,0,0,1,3.6,2.21,4.1,4.1,0,0,1,3.86-2.21c3.09,0,4.19,2.11,4.19,5v7.28Z"/><path class="cls-1" d="M28.55,30.92l-.08-1.27A4.51,4.51,0,0,1,25,31.19c-2.13,0-4.39-1.15-4.39-3.85s2.48-3.61,4.71-3.7l3.05-.13v-.27c0-1.27-.91-1.93-2.48-1.93a7.64,7.64,0,0,0-3.71,1.08l-1-2.56a12,12,0,0,1,5.18-1.22c3.78,0,6,1.57,6,5.49v6.82Zm-2.09-5.2c-1.2.05-1.91.57-1.91,1.47s.76,1.5,1.84,1.5a2.44,2.44,0,0,0,2-1.1v-2Z"/><path class="cls-1" d="M39.28,21.82v4.34c0,1.06.07,1.8,1.27,1.8a3.51,3.51,0,0,0,1.18-.23l.2,3.07a10.94,10.94,0,0,1-2.8.39c-3.14,0-3.8-1.91-3.8-4.68V21.82H33.61v-3h1.72V15.56h4v3.29H42v3Z"/><path class="cls-1" d="M49.19,31.19a6.11,6.11,0,0,1-6.38-6.28,6.16,6.16,0,0,1,6.43-6.3,6.87,6.87,0,0,1,4.49,1.27l-.86,3a5,5,0,0,0-3.11-1.08,2.89,2.89,0,0,0-3,3.07A2.89,2.89,0,0,0,49.81,28a4.75,4.75,0,0,0,3.06-1.18l.94,3C53.68,29.84,52.41,31.19,49.19,31.19Z"/><path class="cls-1" d="M63.38,30.92V24.57c0-1.47-.19-2.75-1.84-2.75S59.38,23.19,59.38,25v5.93H55.46V14h3.92v4c0,1.22,0,2.55,0,2.55a3.89,3.89,0,0,1,3.56-2c3.51,0,4.41,2.23,4.41,5.17v7.14Z"/><path class="cls-1" d="M77.77,22.43H77.6a3.24,3.24,0,0,0-1.43-.29c-1.94,0-2.43,1.82-2.43,3.41v5.37H69.82V18.83h3.92l0,1.71h0a3.2,3.2,0,0,1,3-1.93,2.86,2.86,0,0,1,1.23.22Z"/><path class="cls-1" d="M85.21,31.19c-3.83,0-6.72-2.38-6.72-6.28s2.89-6.3,6.72-6.3,6.7,2.4,6.7,6.3S89,31.19,85.21,31.19Zm0-9.49c-1.74,0-2.75,1.35-2.75,3.14s1,3.14,2.75,3.14S88,26.63,88,24.84,86.93,21.7,85.21,21.7Z"/><path class="cls-1" d="M123.45,30.92V24.35c0-1.3-.24-2.53-1.59-2.53s-2,1.23-2,2.9v6.2H116V24.35c0-1.5-.35-2.53-1.62-2.53s-2,1.23-2,2.9v6.2h-3.93V18.83h3.93l0,1.74,0,0a4,4,0,0,1,3.34-1.93,3.4,3.4,0,0,1,3.6,2.21,4.1,4.1,0,0,1,3.86-2.21c3.09,0,4.19,2.11,4.19,5v7.28Z"/><path class="cls-1" d="M97.35,27.49a4,4,0,0,1-1.16-3,3.63,3.63,0,0,1,3.68-3.92,3.72,3.72,0,0,1,1.68.4L103,18.79a7.25,7.25,0,0,0-3.12-.69c-3.74,0-6.67,2.44-6.67,6.5a6.07,6.07,0,0,0,2.42,5.23"/><path class="cls-1" d="M102.3,21.52a3.9,3.9,0,0,1,1.25,3,3.64,3.64,0,0,1-3.68,3.93A3.7,3.7,0,0,1,98.13,28l-1.49,2.32a7.41,7.41,0,0,0,3.23.73c3.73,0,6.67-2.42,6.67-6.49a6.16,6.16,0,0,0-2.68-5.34"/><path class="cls-1" d="M99.66,21.83l2.41,2.5a.5.5,0,0,1,0,.7l-2.46,2.36a.49.49,0,0,1-.83-.36l.06-4.86A.49.49,0,0,1,99.66,21.83Z"/><path class="cls-1" d="M193.61,2.86l-2,2.45c-1.83-.54-3.74-1.21-5.71-1.66a55.36,55.36,0,0,0-15.36-.93c-12.71.7-25,3.52-37.28,6.76a.59.59,0,0,1-.59-.11c2.15-.78,4.3-1.59,6.47-2.34A127.33,127.33,0,0,1,165.21.79c7.93-1,15.87-1.31,23.73.59C190.52,1.76,192,2.36,193.61,2.86Z"/><path class="cls-1" d="M198.9,7.6c2.48,3.58.64,10.12-4.27,14.39,2.2-4,4.31-7.71,2.12-12Z"/><path class="cls-1" d="M195.23,9.06a2.77,2.77,0,0,1-2.71-2.71,2.75,2.75,0,1,1,2.71,2.71Z"/><path id="Path_2237" data-name="Path 2237" class="cls-1" d="M138.21,26.4,141,13.13h-5.66l-3.84,18.06H145l1-4.79Zm37.12-13.27h-5.82l-3.36,7.5A26.28,26.28,0,0,0,164.77,25h-.19c.06-1.19.06-1.67.06-2.43s0-1.6-.06-2l-.67-7.4h-5.5l2,18.06h6.3Zm6.31,4.69h9.56l1-4.69H177.12l-3.84,18.06h15.49l1-4.71h-10l.52-2.41h8.2l.89-4.17h-8.2Z"/><polygon class="cls-1" points="151.23 13.13 147.39 31.19 153.05 31.19 156.87 13.13 151.23 13.13"/></svg>